<svg xmlns="http://www.w3.org/2000/svg" viewBox="0 0 474.3 100"><g fill="#F79239"><path d="M130.5 0v100h72.3l-8.3-20h-44.6V0zM444.6 60h-29.1l-.3 40h-19.4V0h48.5c39.8 0 40.3 60 .3 60zm-29.1-19.9l29.1-.1c14.3 0 13.8-20-.3-20h-28.8v20.1zM283.8 20V0h-77v100h77V80H226V60h38.5V40H226V20zM0 0h100v100H0V0zm42.7 43l32.6 4.9 5.1 27.4 4.8-39.6L50.9 20l-8.2 23zm0 0l-2.5 7-29.5 30.1 40-18.6 6.9-13.2L42.7 43zM370.8 100h21.1L350.5 0H329.2l-41.4 100h21.1l8.3-20h45.3l8.3 20zm-45.3-40l14.4-34.7L354.2 60h-28.7z"/></g></svg>