<?xml version="1.0" standalone="no"?>
<!DOCTYPE svg PUBLIC "-//W3C//DTD SVG 20010904//EN"
 "http://www.w3.org/TR/2001/REC-SVG-20010904/DTD/svg10.dtd">
<svg version="1.0" xmlns="http://www.w3.org/2000/svg"
 width="781.000000pt" height="781.000000pt" viewBox="0 0 781.000000 781.000000"
 preserveAspectRatio="xMidYMid meet">
<metadata>
Created by potrace 1.11, written by Peter Selinger 2001-2013
</metadata>
<g transform="translate(0.000000,781.000000) scale(0.100000,-0.100000)"
fill="#000000" stroke="none">
<path d="M5836 6425 c-70 -28 -114 -68 -151 -137 -55 -101 -30 -244 57 -324
59 -55 88 -66 261 -100 93 -19 176 -38 184 -43 10 -5 -4 -16 -49 -36 -75 -33
-257 -121 -573 -275 -126 -62 -239 -116 -250 -121 -11 -5 -27 -13 -35 -18 -8
-6 -49 -25 -90 -44 -41 -19 -185 -89 -320 -155 -276 -135 -658 -321 -738 -359
-29 -14 -56 -23 -60 -19 -3 4 -5 234 -4 511 2 352 0 505 -8 510 -6 4 -97 -40
-203 -96 -106 -57 -228 -122 -273 -145 -44 -23 -110 -57 -145 -76 -116 -64
-222 -120 -344 -183 -153 -79 -292 -152 -330 -175 -16 -9 -97 -52 -180 -95
-82 -43 -189 -100 -238 -127 -48 -26 -89 -48 -92 -48 -2 0 -53 -26 -112 -59
-147 -79 -242 -130 -413 -218 -80 -42 -149 -79 -155 -83 -5 -4 -104 -57 -220
-118 -115 -60 -237 -124 -270 -143 -93 -51 -188 -102 -330 -175 -71 -37 -141
-74 -155 -84 -14 -9 -41 -25 -60 -34 -107 -50 -169 -172 -149 -295 29 -184
229 -284 396 -200 125 63 449 233 458 239 6 5 96 52 200 105 105 54 195 101
200 105 6 4 69 38 140 75 72 38 149 79 173 91 63 35 214 115 322 171 52 28
129 68 170 90 190 102 242 129 340 181 58 30 139 73 179 94 41 22 113 60 160
85 48 25 113 60 146 78 128 69 215 115 220 115 3 0 5 -221 5 -490 0 -549 -5
-518 72 -482 97 46 568 273 883 427 433 211 607 296 675 328 41 19 163 78 270
130 107 52 247 119 310 150 63 30 201 96 305 147 447 217 494 240 500 240 3 0
3 -5 -1 -11 -6 -11 -21 -63 -70 -248 -22 -82 -24 -100 -14 -145 29 -138 148
-236 285 -236 82 0 175 53 224 127 30 45 38 67 111 318 39 134 57 193 116 385
37 122 150 507 164 558 6 24 13 49 16 56 9 23 -30 33 -371 96 -55 10 -185 36
-290 58 -104 22 -266 56 -360 75 -407 85 -408 85 -489 52z"/>
<path d="M5790 4869 c-63 -32 -213 -106 -333 -165 -160 -80 -219 -114 -223
-129 -2 -11 -3 -452 -2 -980 l3 -960 355 0 355 0 2 1148 3 1147 -23 -2 c-12
-1 -74 -27 -137 -59z"/>
<path d="M3285 4649 c-44 -23 -114 -59 -155 -82 -41 -22 -127 -67 -190 -100
-63 -34 -135 -73 -160 -87 l-45 -26 -3 -862 -2 -862 355 0 355 0 0 541 0 541
-25 -6 -25 -6 -2 492 c-2 316 -7 492 -13 495 -5 1 -46 -16 -90 -38z"/>
<path d="M4460 4220 c-113 -55 -266 -130 -340 -167 l-135 -68 0 -675 0 -675
353 -3 c232 -1 352 1 352 8 0 5 0 381 0 835 0 454 0 830 0 835 0 19 -25 9
-230 -90z"/>
<path d="M2144 4046 c-11 -8 -95 -53 -189 -101 -93 -48 -188 -98 -210 -110
-48 -27 -141 -77 -206 -111 -26 -14 -53 -31 -58 -38 -8 -9 -10 -174 -9 -532
l3 -519 355 0 355 0 3 706 c2 754 3 738 -44 705z"/>
<path d="M2415 2515 c-5 -2 -27 -6 -47 -10 -44 -7 -51 -31 -13 -41 l25 -6 -2
-252 -3 -251 -27 -3 c-16 -2 -28 -9 -28 -18 0 -11 21 -14 106 -14 79 0 105 3
102 12 -3 7 -15 15 -28 18 -15 4 -27 16 -32 35 -4 17 -8 143 -7 280 0 235 -1
250 -18 252 -10 1 -22 0 -28 -2z"/>
<path d="M3303 2508 c-33 -43 -14 -88 38 -88 28 0 49 23 49 54 0 37 -65 62
-87 34z"/>
<path d="M5245 2500 c-27 -29 -10 -74 28 -78 36 -4 57 13 57 47 0 51 -50 69
-85 31z"/>
<path d="M5910 2515 c-8 -2 -32 -6 -52 -10 -44 -7 -51 -31 -13 -41 l25 -6 0
-238 c0 -131 -3 -245 -6 -254 -3 -9 -17 -16 -30 -16 -15 0 -24 -6 -24 -15 0
-12 18 -15 106 -15 80 0 105 3 102 13 -3 6 -13 14 -24 15 -42 8 -44 23 -44
304 0 208 -3 268 -12 267 -7 -1 -20 -3 -28 -4z"/>
<path d="M602 2493 c2 -12 14 -18 38 -20 18 -2 37 -9 42 -16 4 -6 8 -116 8
-243 0 -211 -2 -232 -18 -247 -10 -10 -31 -17 -45 -17 -17 0 -27 -5 -27 -15 0
-13 35 -15 255 -15 l255 0 0 91 c0 81 -2 90 -17 87 -10 -2 -19 -12 -21 -23 -6
-33 -55 -103 -80 -114 -30 -14 -157 -14 -183 -1 -18 10 -19 24 -19 245 0 128
3 240 6 249 3 9 17 16 29 16 13 0 36 4 50 10 54 21 12 30 -131 30 -132 0 -145
-2 -142 -17z"/>
<path d="M2780 2496 c0 -15 21 -26 50 -26 11 0 24 -9 30 -20 15 -29 9 -465 -7
-481 -6 -6 -26 -14 -44 -18 -18 -4 -34 -12 -37 -19 -3 -9 32 -12 142 -12 123
0 146 2 146 15 0 9 -10 15 -26 15 -60 0 -64 10 -64 140 l0 120 44 0 c49 0 65
-13 75 -63 4 -18 13 -32 21 -32 12 0 16 20 18 99 1 55 1 105 -2 113 -8 20 -36
3 -36 -22 0 -36 -26 -55 -76 -55 l-44 0 0 115 0 116 84 -5 c46 -3 91 -8 100
-12 8 -3 27 -30 42 -60 41 -84 59 -71 48 36 l-7 70 -228 0 c-189 0 -229 -2
-229 -14z"/>
<path d="M1269 2291 c-141 -45 -182 -250 -68 -345 17 -14 43 -29 57 -32 15 -3
35 -7 44 -9 57 -11 158 45 158 87 0 26 -15 22 -48 -13 -20 -21 -41 -32 -70
-36 -39 -5 -45 -3 -76 30 -28 29 -34 46 -40 98 -4 34 -4 65 1 70 5 5 60 10
123 11 l115 3 -3 25 c-4 29 -44 85 -71 100 -28 14 -93 20 -122 11z m91 -53
c11 -12 20 -30 20 -40 0 -16 -9 -18 -75 -18 -84 0 -95 11 -50 55 31 32 77 33
105 3z"/>
<path d="M1645 2291 c-107 -26 -145 -135 -76 -221 20 -25 27 -40 18 -40 -23 0
-47 -35 -47 -68 0 -44 33 -62 132 -73 113 -12 125 -16 143 -43 12 -17 13 -30
6 -49 -27 -71 -164 -88 -233 -29 -19 16 -24 67 -8 77 19 12 10 35 -13 35 -34
0 -47 -19 -47 -65 0 -32 6 -47 28 -68 15 -15 35 -27 44 -27 9 0 20 -4 23 -10
9 -14 119 -13 168 2 100 30 134 140 64 206 -23 22 -49 28 -197 49 -39 6 -55
12 -55 23 0 11 21 18 78 27 43 6 89 19 103 28 49 32 68 86 54 151 -5 21 -7 41
-4 43 2 3 18 -3 35 -13 33 -19 59 -9 59 23 0 41 -56 55 -99 25 -21 -15 -26
-15 -50 -2 -34 20 -88 28 -126 19z m84 -55 c32 -34 32 -128 0 -162 -52 -55
-125 3 -115 91 2 17 4 36 5 43 2 21 40 52 64 52 13 0 34 -11 46 -24z"/>
<path d="M2057 2293 c-76 -12 -133 -79 -93 -109 24 -17 42 -7 64 37 13 27 24
35 50 37 48 5 82 -21 82 -61 0 -31 -4 -34 -92 -77 -51 -25 -100 -57 -111 -72
-29 -39 -26 -86 7 -115 36 -31 89 -30 152 2 27 14 50 20 52 15 13 -39 79 -53
119 -25 21 15 38 65 21 65 -6 0 -18 -10 -28 -22 -17 -22 -17 -22 -28 -2 -6 11
-12 72 -13 135 -2 127 -12 160 -56 177 -36 14 -90 21 -126 15z m103 -227 c0
-60 -2 -66 -30 -86 -47 -33 -76 -35 -96 -5 -29 45 -3 82 101 142 11 7 21 12
23 12 1 1 2 -28 2 -63z"/>
<path d="M3315 2288 c-72 -14 -75 -16 -75 -33 0 -9 9 -15 21 -15 42 0 49 -21
49 -147 0 -126 -6 -143 -47 -143 -14 0 -23 -6 -23 -15 0 -12 18 -15 100 -15
82 0 100 3 100 15 0 8 -9 15 -20 15 -33 0 -40 32 -40 194 0 86 -3 155 -7 155
-5 -1 -30 -6 -58 -11z"/>
<path d="M3520 2287 c-47 -13 -62 -39 -25 -46 11 -2 23 -8 27 -15 4 -6 8 -65
8 -131 0 -125 -6 -145 -42 -145 -10 0 -18 -7 -18 -15 0 -12 17 -15 95 -15 78
0 95 3 95 15 0 8 -9 15 -20 15 -29 0 -40 37 -40 140 0 87 1 89 34 124 26 28
41 36 69 36 62 0 68 -15 65 -163 -3 -130 -3 -131 -27 -137 -14 -3 -26 -11 -29
-18 -3 -9 22 -12 97 -12 83 0 101 3 101 15 0 8 -9 15 -20 15 -31 0 -40 32 -40
145 0 160 -24 199 -122 198 -44 -1 -99 -27 -120 -58 -4 -5 -8 4 -8 21 0 20 -6
34 -16 38 -9 3 -16 6 -17 5 -1 0 -22 -6 -47 -12z"/>
<path d="M4069 2291 c-85 -17 -140 -111 -64 -111 17 0 28 10 42 38 16 32 23
37 56 40 50 4 77 -19 77 -65 0 -27 -5 -35 -25 -43 -66 -25 -137 -64 -164 -89
-42 -40 -44 -99 -3 -131 22 -18 36 -21 79 -17 31 3 66 15 83 27 l31 22 20 -26
c15 -20 29 -26 57 -26 20 0 42 4 48 8 13 8 34 46 34 61 0 19 -27 12 -43 -11
-27 -38 -37 -4 -37 125 0 140 -10 167 -70 191 -43 17 -63 18 -121 7z m111
-230 c0 -54 -3 -62 -28 -80 -59 -41 -104 -31 -104 24 0 37 25 70 74 93 24 12
46 21 51 22 4 0 7 -27 7 -59z"/>
<path d="M4422 2289 c-23 -4 -47 -11 -52 -14 -17 -11 -11 -35 10 -35 31 0 40
-32 40 -139 0 -113 -10 -151 -40 -151 -11 0 -20 -7 -20 -15 0 -12 17 -15 95
-15 74 0 95 3 95 14 0 8 -11 17 -24 20 -29 7 -36 37 -36 148 0 78 1 81 34 114
26 26 42 34 69 34 61 0 67 -15 67 -160 l0 -128 -30 -11 c-16 -5 -30 -15 -30
-21 0 -14 189 -9 193 5 1 5 -7 11 -18 14 -11 2 -23 8 -27 15 -4 6 -8 63 -8
126 0 142 -14 178 -75 198 -46 15 -109 3 -150 -30 -25 -19 -25 -19 -25 0 0 30
-20 39 -68 31z"/>
<path d="M4976 2288 c-155 -34 -200 -261 -70 -350 40 -27 65 -32 143 -30 35 2
50 9 77 36 19 19 34 44 34 56 0 26 -21 22 -34 -7 -23 -50 -98 -67 -152 -34
-44 27 -68 117 -52 201 10 53 20 69 52 84 52 25 74 20 97 -18 24 -41 41 -49
65 -32 24 18 12 57 -23 77 -37 21 -89 28 -137 17z"/>
<path d="M5280 2290 c-14 -4 -40 -8 -57 -9 -26 -1 -33 -5 -33 -21 0 -13 7 -20
18 -20 36 0 42 -20 42 -145 0 -124 -6 -145 -41 -145 -9 0 -19 -7 -23 -15 -5
-13 10 -15 99 -15 87 0 105 3 105 15 0 9 -9 15 -25 15 -35 0 -46 52 -45 203 1
67 1 128 1 135 -1 13 -5 14 -41 2z"/>
<path d="M5530 2289 c-51 -10 -93 -49 -88 -83 5 -34 49 -28 67 9 18 38 28 45
72 45 43 0 69 -25 69 -66 0 -27 -8 -32 -88 -71 -105 -51 -136 -80 -136 -128 0
-81 85 -110 178 -60 l48 25 20 -25 c36 -46 128 -24 128 31 0 30 -13 31 -33 2
-8 -13 -19 -19 -23 -15 -5 5 -12 68 -15 140 -4 73 -10 140 -14 150 -16 39
-106 62 -185 46z m118 -231 l-3 -63 -47 -25 -48 -25 -21 21 c-24 25 -20 71 9
97 20 17 93 57 105 57 4 0 7 -28 5 -62z"/>
<path d="M960 1811 c-118 -36 -187 -122 -212 -261 -12 -70 1 -180 27 -231 26
-50 76 -99 129 -127 45 -24 62 -27 146 -27 98 0 155 18 189 59 19 23 28 20 46
-14 10 -19 20 -27 30 -23 23 8 17 226 -5 231 -11 2 -20 -12 -29 -42 -20 -69
-63 -130 -106 -150 -114 -54 -226 -15 -285 101 -22 43 -25 60 -24 163 0 123
11 163 60 227 55 73 161 88 252 37 40 -22 56 -40 77 -81 14 -29 28 -66 32 -83
4 -21 11 -30 22 -28 9 2 16 11 15 21 0 9 -1 65 -2 123 -2 93 -4 105 -19 102
-9 -2 -21 -18 -25 -36 -5 -17 -11 -32 -13 -32 -5 0 -36 25 -59 46 -30 28 -184
44 -246 25z"/>
<path d="M3525 1813 c-82 -10 -99 -30 -47 -55 l27 -13 3 -245 c1 -135 0 -255
-3 -267 -3 -14 -14 -23 -32 -25 -17 -2 -29 -10 -31 -20 -3 -16 7 -18 108 -18
100 0 111 2 108 17 -2 9 -14 20 -27 23 -15 3 -27 15 -32 31 -3 14 -6 149 -6
300 1 306 7 282 -68 272z"/>
<path d="M3743 1811 c-28 -4 -55 -10 -59 -13 -12 -12 5 -38 25 -38 10 0 22 -7
25 -16 3 -9 6 -130 6 -270 0 -234 -1 -255 -17 -260 -75 -23 -55 -39 54 -42
111 -3 131 1 113 23 -7 8 -21 15 -32 15 -10 0 -21 6 -24 14 -3 8 -6 144 -7
302 -2 249 -4 289 -17 290 -8 1 -38 -2 -67 -5z"/>
<path d="M2463 1632 c-16 -34 -32 -52 -55 -63 -38 -16 -40 -33 -4 -37 l25 -3
3 -160 3 -161 28 -24 c46 -40 153 -25 172 25 9 24 -12 37 -32 19 -28 -24 -49
-28 -70 -13 -16 12 -18 29 -18 162 l0 148 50 3 c91 6 84 42 -8 42 l-48 0 6 34
c8 40 -1 76 -18 76 -7 0 -22 -22 -34 -48z"/>
<path d="M1535 1561 c-57 -26 -82 -51 -106 -106 -40 -91 -19 -187 56 -253 34
-30 46 -36 108 -45 71 -11 164 29 202 87 25 37 36 121 24 177 -27 123 -169
193 -284 140z m147 -41 c26 -20 58 -99 58 -144 0 -58 -23 -131 -50 -158 -54
-54 -159 -24 -180 52 -13 45 -13 145 0 190 20 73 115 106 172 60z"/>
<path d="M1923 1568 c-33 -7 -43 -14 -43 -29 0 -12 7 -19 20 -19 33 0 41 -33
38 -167 l-3 -126 -29 -16 c-50 -28 -35 -36 72 -39 95 -2 103 -1 100 15 -2 10
-12 19 -23 22 -31 5 -35 19 -35 140 l0 113 34 34 c27 27 42 34 74 34 68 0 73
-11 70 -173 l-3 -141 -25 -6 c-14 -3 -26 -14 -28 -23 -3 -15 8 -17 103 -17 95
0 106 2 103 17 -2 9 -14 20 -28 23 -25 6 -25 7 -31 143 -4 76 -12 151 -19 166
-26 64 -136 78 -209 27 l-36 -26 -13 30 c-13 32 -21 34 -89 18z"/>
<path d="M2703 1563 c-51 -15 -73 -43 -35 -43 43 0 52 -29 52 -162 0 -130 -3
-142 -45 -150 -11 -2 -21 -11 -23 -21 -3 -15 7 -17 102 -17 98 0 106 1 106 19
0 14 -8 21 -27 23 l-28 3 0 127 0 126 30 31 c37 37 48 38 69 5 13 -18 24 -24
44 -22 57 6 25 98 -34 98 -31 0 -61 -15 -96 -48 -27 -25 -28 -25 -28 -5 0 30
-10 53 -24 52 -6 0 -35 -8 -63 -16z"/>
<path d="M3115 1561 c-47 -22 -89 -64 -105 -106 -17 -43 -15 -156 3 -191 16
-31 47 -62 89 -88 34 -22 155 -23 195 -2 122 64 151 238 55 340 -37 39 -98 66
-152 66 -25 0 -63 -9 -85 -19z m134 -32 c42 -15 63 -58 69 -139 6 -85 -10
-142 -49 -174 -52 -44 -133 -27 -164 35 -41 79 -21 244 34 274 32 17 68 19
110 4z"/>
<path d="M4040 1564 c-48 -21 -68 -41 -96 -96 -50 -99 -17 -232 70 -283 47
-28 139 -35 179 -14 36 19 77 62 77 81 0 27 -18 22 -54 -16 -40 -43 -75 -53
-123 -35 -47 18 -74 70 -81 154 l-5 65 132 0 131 0 0 28 c0 38 -42 96 -83 116
-43 20 -101 20 -147 0z m120 -44 c11 -11 20 -31 20 -45 0 -25 -1 -25 -81 -25
l-81 0 6 26 c15 59 95 85 136 44z"/>
<path d="M4395 1563 c-68 -20 -74 -29 -31 -47 l37 -15 -3 -143 -3 -142 -25 -6
c-14 -3 -26 -14 -28 -23 -3 -15 8 -17 103 -17 95 0 106 2 103 17 -2 9 -14 20
-28 23 l-25 6 0 126 c0 127 0 127 29 157 36 38 49 39 66 6 9 -17 22 -25 41
-25 32 0 46 28 29 59 -27 51 -96 51 -149 1 -17 -17 -33 -30 -35 -30 -3 0 -6
14 -8 32 -4 39 -10 40 -73 21z"/>
<path d="M4764 1570 c-38 -15 -64 -59 -64 -107 0 -53 17 -73 110 -127 73 -43
80 -50 80 -88 0 -36 -24 -58 -64 -58 -35 0 -63 24 -87 74 -22 45 -34 32 -37
-39 -2 -51 0 -65 11 -65 8 0 18 7 21 16 5 14 8 14 28 0 53 -38 170 -6 184 49
10 40 -2 113 -21 135 -9 10 -48 35 -86 55 -38 20 -73 44 -78 54 -21 38 14 81
59 72 24 -4 52 -33 67 -68 23 -57 43 -42 43 32 0 65 -10 81 -36 55 -7 -7 -20
-6 -40 5 -32 16 -58 18 -90 5z"/>
</g>
</svg>
